#!OML:ASF F:\VICON\USERDATA\INSTALL\rory3\rory3.ASF
:FULLY-SPECIFIED
:DEGREES
643
root 6.16225 15.5069 -9.58424 1.87201 69.4294 -4.97333
lowerback -6.42507 -5.07999 -0.671306
upperback -13.0155 -5.22152 11.9268
thorax -9.29049 -1.47323 13.6953
lowerneck -4.08112 -13.0102 -2.3169
upperneck 25.0166 -14.7833 -13.3264
head 7.5019 -8.33855 -5.02159
rclavicle -4.13472e-014 3.18055e-014
rhumerus 83.6032 -10.3882 -10.5101
rradius 42.7896
rwrist 10.8471
rhand 16.6364 -12.0635
rfingers 7.12502
rthumb 41.3897 -36.8548
lclavicle -4.13472e-014 3.18055e-014
lhumerus 97.9798 11.5407 26.5419
lradius 46.7533
lwrist -30.7178
lhand -9.75176 11.6946
lfingers 7.12502
lthumb 16.2227 41.0358
rfemur -50.5622 -13.1934 31.4541
rtibia 54.053
rfoot -21.7243 -26.3232
rtoes 26.6305
lfemur -26.6713 22.7863 -29.5551
ltibia 74.8162
lfoot -19.787 39.3468
ltoes 31.4303
644
root 6.22245 15.4833 -9.54762 1.74461 69.4767 -5.0508
lowerback -6.43269 -4.93147 -0.636916
upperback -13.0419 -5.01871 11.8249
thorax -9.37621 -1.37179 13.5621
lowerneck -5.35643 -12.3825 -2.72995
upperneck 25.8977 -13.8856 -12.4931
head 8.191 -7.90033 -4.83213
rclavicle -8.90555e-014 3.18055e-015
rhumerus 83.3065 -10.4305 -10.4421
rradius 42.9558
rwrist 10.4159
rhand 16.1833 -12.3421
rfingers 7.12502
rthumb 40.9643 -37.2698
lclavicle -8.90555e-014 3.18055e-015
lhumerus 97.7664 11.5795 25.8563
lradius 46.8331
lwrist -29.5771
lhand -8.62871 11.2184
lfingers 7.12502
lthumb 17.3038 40.4681
rfemur -50.4031 -13.0963 31.4392
rtibia 54.3955
rfoot -22.3757 -26.5272
rtoes 26.5857
lfemur -27.505 22.9366 -29.7147
ltibia 75.7474
lfoot -18.8484 37.4862
ltoes 28.707
645
root 6.27477 15.4579 -9.50416 1.70622 69.3961 -4.88603
lowerback -6.22352 -4.95109 -0.782153
upperback -12.9413 -5.04364 11.9558
thorax -9.35698 -1.36795 13.8189
lowerneck -5.16825 -12.5152 -3.55774
upperneck 25.815 -14.0402 -12.1559
head 8.22902 -8.00776 -4.6037
rclavicle -5.56597e-014 2.8625e-014
rhumerus 83.8318 -10.4233 -10.7613
rradius 42.9518
rwrist 11.1822
rhand 16.5953 -12.3287
rfingers 7.12502
rthumb 41.3511 -37.1325
lclavicle -5.56597e-014 2.8625e-014
lhumerus 96.8492 12.1218 24.9765
lradius 47.1866
lwrist -28.4554
lhand -8.08322 11.7937
lfingers 7.12502
lthumb 17.8288 40.9964
rfemur -50.1192 -13.0574 31.3969
rtibia 54.7174
rfoot -22.9521 -26.5246
rtoes 26.4889
lfemur -28.1733 23.1767 -29.8493
ltibia 76.5857
lfoot -17.3744 35.1792
ltoes 24.5539
646
root 6.32291 15.4426 -9.4642 0.958569 69.2486 -5.44
lowerback -6.01356 -4.69495 -0.835423
upperback -12.9209 -4.69393 11.8528
thorax -9.54732 -1.17922 13.7602
lowerneck -4.58971 -12.8581 -2.50994
upperneck 25.4077 -14.5807 -12.8747
head 7.79399 -8.22816 -4.91901
rclavicle 4.13472e-014 -1.04958e-013
rhumerus 83.3491 -10.5666 -10.53
rradius 42.9719
rwrist 12.6813
rhand 18.1319 -12.6028
rfingers 7.12502
rthumb 42.791 -36.9222
lclavicle 4.13472e-014 -1.04958e-013
lhumerus 96.7893 12.1156 24.6575
lradius 47.562
lwrist -27.3471
lhand -7.56849 12.1319
lfingers 7.12502
lthumb 18.324 41.2888
rfemur -49.7297 -13.0578 31.6535
rtibia 54.9765
rfoot -23.4345 -26.3594
rtoes 26.5151
lfemur -28.738 23.4483 -29.6376
ltibia 77.3086
lfoot -17.2858 32.293
ltoes 21.312
647
root 6.36714 15.4265 -9.43044 -0.464916 69.1609 -6.68158
lowerback -5.71109 -4.47073 -0.509761
upperback -12.8982 -4.37021 11.7908
thorax -9.80631 -1.03234 13.5276
lowerneck -4.48842 -12.9229 -2.00429
upperneck 25.3697 -14.7072 -13.0681
head 7.68854 -8.26066 -5.03995
rclavicle -1.20861e-013 -3.18055e-014
rhumerus 82.87 -10.8237 -10.037
rradius 42.9609
rwrist 13.8551
rhand 19.2492 -12.8004
rfingers 7.12502
rthumb 43.835 -36.7445
lclavicle -1.20861e-013 -3.18055e-014
lhumerus 97.0808 11.7415 24.9642
lradius 47.419
lwrist -27.0313
lhand -7.00414 11.8762
lfingers 7.12502
lthumb 18.8668 40.9812
rfemur -49.3512 -13.2613 32.2153
rtibia 55.2054
rfoot -23.6553 -26.2277
rtoes 26.1683
lfemur -29.2554 23.6098 -29.1655
ltibia 77.9343
lfoot -17.0416 29.1601
ltoes 16.5971
648
root 6.40928 15.4121 -9.40173 -1.6429 69.1221 -7.6828
lowerback -5.46967 -4.28527 -0.265625
upperback -12.7466 -4.09682 11.9475
thorax -9.85022 -0.904308 13.5835
lowerneck -4.66213 -13.2054 -3.08492
upperneck 26.0923 -14.9715 -12.6869
head 8.09143 -8.44701 -4.86564
rclavicle 6.99722e-014 -4.13472e-014
rhumerus 82.7267 -11.1627 -9.42342
rradius 42.7728
rwrist 15.1555
rhand 18.9377 -11.9249
rfingers 7.12502
rthumb 43.5442 -35.9757
lclavicle 6.99722e-014 -4.13472e-014
lhumerus 97.3459 11.5675 25.6922
lradius 47.0478
lwrist -27.2401
lhand -6.59886 12.1455
lfingers 7.12502
lthumb 19.2566 41.2121
rfemur -49.0669 -13.6178 32.6974
rtibia 55.4534
rfoot -23.6745 -26.1043
rtoes 25.0005
lfemur -29.7081 23.5044 -28.7503
ltibia 78.3967
lfoot -16.9704 25.7188
ltoes 11.6408
649
root 6.44984 15.4064 -9.37828 -1.96438 69.0257 -7.99683
lowerback -5.36949 -4.48941 -0.191183
upperback -12.755 -4.3537 12.1357
thorax -9.85394 -1.02717 13.7762
lowerneck -5.16338 -12.6449 -3.60067
upperneck 26.2929 -14.133 -12.3383
head 8.37646 -8.07368 -4.69665
rclavicle -3.49861e-014 -2.22639e-014
rhumerus 83.4322 -10.8108 -10.0195
rradius 42.4661
rwrist 17.2555
rhand 18.5566 -10.615
rfingers 7.12502
rthumb 43.1882 -34.7941
lclavicle -3.49861e-014 -2.22639e-014
lhumerus 96.2648 11.8916 24.6464
lradius 47.2017
lwrist -26.5215
lhand -5.3692 12.6495
lfingers 7.12502
lthumb 20.4386 41.5938
rfemur -48.9944 -13.5697 32.8219
rtibia 55.7159
rfoot -23.8486 -26.113
rtoes 24.6068
lfemur -30.2968 23.113 -28.6462
ltibia 78.6391
lfoot -17.6218 22.3531
ltoes 7.96488
650
root 6.48809 15.3936 -9.35889 -2.10606 68.9114 -8.30491
lowerback -5.47928 -4.40236 -0.0893279
upperback -12.7992 -4.22807 12.129
thorax -9.87986 -0.967461 13.7034
lowerneck -5.11719 -12.6649 -1.08592
upperneck 25.7257 -14.1251 -14.4236
head 7.75063 -8.05322 -5.63909
rclavicle -3.33958e-014 -2.54444e-014
rhumerus 83.1146 -10.7394 -10.1479
rradius 42.6295
rwrist 20.1484
rhand 19.7588 -9.5202
rfingers 7.12502
rthumb 44.3103 -33.2864
lclavicle -3.33958e-014 -2.54444e-014
lhumerus 95.8921 11.9991 24.0352
lradius 47.4131
lwrist -25.6879
lhand -3.60358 12.5557
lfingers 7.12502
lthumb 22.1346 41.3087
rfemur -49.1607 -13.5435 33.0216
rtibia 55.9957
rfoot -24.0367 -26.1096
rtoes 24.7005
lfemur -31.0949 22.5784 -28.6892
ltibia 78.74
lfoot -17.9027 19.7874
ltoes 2.92479
651
root 6.52292 15.3733 -9.33586 -2.22994 68.7568 -8.55549
lowerback -5.53219 -4.14854 0.0409461
upperback -12.8951 -3.88223 11.9153
thorax -10.0619 -0.804023 13.3771
lowerneck -5.99074 -12.5011 -3.25654
upperneck 27.6356 -13.8394 -12.3173
head 8.97739 -7.92107 -4.88885
rclavicle -2.54444e-014 -2.54444e-014
rhumerus 82.1254 -10.6552 -10.0892
rradius 42.7551
rwrist 23.3136
rhand 21.1447 -8.12799
rfingers 7.12502
rthumb 45.5999 -31.3873
lclavicle -2.54444e-014 -2.54444e-014
lhumerus 96.2141 11.5877 23.8463
lradius 47.2964
lwrist -25.335
lhand -2.27747 12.7398
lfingers 7.12502
lthumb 23.4072 41.3363
rfemur -49.3034 -13.5691 33.2409
rtibia 56.2512
rfoot -24.2251 -26.0348
rtoes 24.2779
lfemur -31.7838 21.9533 -28.7235
ltibia 78.7091
lfoot -18.3858 17.2471
ltoes 0.195921
652
root 6.5582 15.3631 -9.31388 -2.78469 68.6503 -9.21421
lowerback -5.56962 -4.09677 0.343259
upperback -12.9413 -3.79971 11.8835
thorax -10.1334 -0.786514 13.1595
lowerneck -5.61982 -12.6103 -2.42297
upperneck 27.3711 -14.0027 -13.0062
head 8.66583 -7.98566 -5.17913
rclavicle 1.30403e-013 0
rhumerus 81.7259 -10.4604 -9.92325
rradius 42.6654
rwrist 25.1376
rhand 21.0298 -7.03864
rfingers 7.12502
rthumb 45.4932 -30.3413
lclavicle 1.30403e-013 0
lhumerus 96.1417 11.3626 23.4998
lradius 46.9985
lwrist -25.2108
lhand -0.922512 12.7998
lfingers 7.12502
lthumb 24.7065 41.2246
rfemur -49.2381 -13.4226 33.4822
rtibia 56.3833
rfoot -24.5144 -26.0536
rtoes 23.9512
lfemur -32.3099 20.9375 -28.562
ltibia 78.5355
lfoot -18.4752 15.1212
ltoes -2.83608
653
root 6.59159 15.3577 -9.29698 -3.33614 68.6113 -9.99337
lowerback -5.73489 -4.16763 0.667975
upperback -12.9738 -3.88093 11.9839
thorax -10.0724 -0.850891 13.0727
lowerneck -5.27491 -12.6778 -2.86894
upperneck 27.559 -14.1047 -12.6795
head 8.73448 -8.03233 -5.00653
rclavicle -5.24792e-014 -3.18055e-014
rhumerus 81.6868 -10.1487 -9.75399
rradius 42.9557
rwrist 25.7158
rhand 21.1246 -7.11614
rfingers 7.12502
rthumb 45.5813 -30.383
lclavicle -5.24792e-014 -3.18055e-014
lhumerus 95.8823 11.3806 23.375
lradius 46.5352
lwrist -25.4117
lhand 0.626122 12.712
lfingers 7.12502
lthumb 26.19 40.9252
rfemur -49.2757 -13.3127 33.7916
rtibia 56.3999
rfoot -24.5578 -26.1386
rtoes 23.8527
lfemur -32.9678 19.8431 -28.4005
ltibia 78.2963
lfoot -18.0441 13.7334
ltoes -9.38191
654
root 6.62114 15.3566 -9.28012 -4.08463 68.4833 -10.9581
lowerback -5.9249 -4.33666 0.885346
upperback -12.8874 -4.10541 12.2621
thorax -9.81179 -0.980282 13.2456
lowerneck -5.33194 -12.5371 -3.73422
upperneck 27.6955 -13.9228 -11.9754
head 8.94876 -7.95467 -4.66911
rclavicle 6.99722e-014 -1.59028e-014
rhumerus 81.9802 -9.71403 -9.99802
rradius 43.6453
rwrist 25.9768
rhand 22.5715 -8.03962
rfingers 7.12502
rthumb 46.9227 -30.7398
lclavicle 6.99722e-014 -1.59028e-014
lhumerus 95.2907 11.6559 22.9922
lradius 46.1627
lwrist -25.3375
lhand 1.40409 14.3198
lfingers 7.12502
lthumb 26.9345 42.4204
rfemur -49.2645 -13.3309 34.2751
rtibia 56.3325
rfoot -24.498 -26.0857
rtoes 23.3559
lfemur -33.5479 18.9334 -28.0157
ltibia 77.9559
lfoot -17.9331 12.0222
ltoes -15.1782
655
root 6.6488 15.3614 -9.25297 -4.95221 68.093 -11.9721
lowerback -6.10963 -4.53604 1.03299
upperback -12.719 -4.38597 12.6067
thorax -9.43749 -1.13865 13.528
lowerneck -5.07389 -12.503 -3.31678
upperneck 27.681 -13.8079 -12.5701
head 8.81086 -7.91854 -4.88521
rclavicle 5.40694e-014 -5.40694e-014
rhumerus 82.4106 -9.29298 -10.1143
rradius 44.2612
rwrist 25.919
rhand 24.3047 -8.96027
rfingers 7.12502
rthumb 48.522 -30.9258
lclavicle 5.40694e-014 -5.40694e-014
lhumerus 94.3506 12.0533 22.031
lradius 45.9685
lwrist -24.2321
lhand 6.13834 10.2696
lfingers 7.12502
lthumb 31.4551 37.5834
rfemur -49.0778 -13.1465 34.842
rtibia 56.2235
rfoot -24.4795 -25.9906
rtoes 22.5675
lfemur -33.8743 18.1382 -27.3373
ltibia 77.4932
lfoot -18.2552 8.99149
ltoes -17.2354
